#!OML:ASF H:\Terrain\Walking\May29\JustinRory\Justin.ASF
:FULLY-SPECIFIED
:DEGREES
385
root 8.1425 14.4988 -17.3588 8.27047 -4.19874 0.0198815
lowerback 22.5766 1.45468 -0.0839893
upperback 1.13164 2.1295 2.07034
thorax -11.5063 1.05811 1.68028
lowerneck -19.9488 -4.73338 -9.50053
upperneck 12.4892 -5.11215 7.7262
head 7.55019 -2.17975 3.47245
rclavicle -1.90833e-014 -1.43125e-014
rhumerus -14.8336 -25.9509 -33.0758
rradius 97.3694
rwrist -42.8647
rhand -23.8322 42.9656
rfingers 7.12502
rthumb 2.63945 13.0022
lclavicle -1.90833e-014 -1.43125e-014
lhumerus -25.0749 22.2753 46.2442
lradius 112.424
lwrist 23.0552
lhand -7.61837 26.7921
lfingers 7.12502
lthumb 18.276 55.9535
rfemur -53.1356 -11.8463 19.9522
rtibia 80.7369
rfoot -31.7013 -8.03327
rtoes -4.49593
lfemur -50.6545 9.85487 -19.5482
ltibia 80.341
lfoot -34.9586 4.75051
ltoes -14.5425
386
root 8.23144 14.4655 -17.3803 8.37331 -6.10201 0.388704
lowerback 22.9933 1.85483 0.404491
upperback 1.20539 2.69956 1.427
thorax -11.6132 1.27132 0.490062
lowerneck -19.6469 -4.75784 -8.90606
upperneck 11.8373 -5.22569 7.27249
head 7.26541 -2.25336 3.20801
rclavicle 3.89618e-014 -3.97569e-015
rhumerus -12.5875 -26.3233 -32.3492
rradius 94.6837
rwrist -43.6563
rhand -23.8921 41.9747
rfingers 7.12502
rthumb 2.58158 12.0106
lclavicle 3.89618e-014 -3.97569e-015
lhumerus -27.2632 23.1173 47.384
lradius 112.911
lwrist 23.0678
lhand -8.00815 27.1749
lfingers 7.12502
lthumb 17.901 56.371
rfemur -54.0013 -10.7853 19.2176
rtibia 81.1662
rfoot -31.5089 -7.45813
rtoes -4.23013
lfemur -50.9464 11.1541 -20.4838
ltibia 80.7607
lfoot -35.2267 5.18086
ltoes -14.1903
387
root 8.32968 14.4356 -17.3907 8.23275 -8.05609 1.11526
lowerback 23.5325 2.24272 0.685016
upperback 1.38227 3.18271 0.657671
thorax -11.6483 1.45069 -0.701266
lowerneck -20.0767 -4.73838 -8.98638
upperneck 11.9541 -5.17728 7.45963
head 7.37883 -2.20786 3.28646
rclavicle 2.78299e-014 0
rhumerus -10.0765 -26.8425 -31.8422
rradius 91.9009
rwrist -44.4032
rhand -24.213 41.1963
rfingers 7.12502
rthumb 2.27167 11.2286
lclavicle 2.78299e-014 0
lhumerus -29.5482 24.131 48.3073
lradius 113.501
lwrist 23.4894
lhand -8.42425 27.682
lfingers 7.12502
lthumb 17.5006 56.9143
rfemur -54.61 -9.97555 18.0448
rtibia 81.5799
rfoot -31.3073 -6.91385
rtoes -5.27844
lfemur -50.8827 12.4503 -21.8463
ltibia 81.0987
lfoot -35.5226 5.6342
ltoes -12.876
388
root 8.42836 14.4041 -17.3999 8.20137 -10.0546 2.04423
lowerback 23.9387 2.56707 0.797813
upperback 1.42892 3.52491 -0.227238
thorax -11.7451 1.5697 -1.88461
lowerneck -20.1017 -4.51017 -9.09328
upperneck 11.9822 -4.87799 7.69678
head 7.37613 -2.04749 3.42251
rclavicle -2.10712e-014 1.66979e-014
rhumerus -7.55236 -27.2781 -31.5662
rradius 88.9867
rwrist -45.3016
rhand -24.1767 40.994
rfingers 7.12502
rthumb 2.30671 11.0267
lclavicle -2.10712e-014 1.66979e-014
lhumerus -32.3282 25.1665 48.6146
lradius 114.094
lwrist 24.3452
lhand -9.07801 27.9368
lfingers 7.12502
lthumb 16.8713 57.2239
rfemur -55.4494 -9.12028 16.6391
rtibia 81.9692
rfoot -31.0893 -6.2623
rtoes -6.9164
lfemur -51.0687 13.7977 -23.4902
ltibia 81.396
lfoot -35.7661 6.06731
ltoes -11.4685
389
root 8.51671 14.3663 -17.4149 8.383 -12.166 2.67675
lowerback 24.3848 2.92818 0.933329
upperback 1.2338 3.93282 -1.03028
thorax -12.1294 1.71066 -3.03345
lowerneck -19.7598 -4.24082 -8.75602
upperneck 11.8982 -4.61646 7.61064
head 7.2585 -1.92169 3.37441
rclavicle -2.90226e-014 3.57812e-015
rhumerus -5.2141 -27.5011 -31.3649
rradius 85.9291
rwrist -45.9097
rhand -23.6135 40.1239
rfingers 7.12502
rthumb 2.85062 10.1632
lclavicle -2.90226e-014 3.57812e-015
lhumerus -35.058 26.058 48.8003
lradius 114.508
lwrist 25.056
lhand -9.25079 28.0772
lfingers 7.12502
lthumb 16.705 57.3785
rfemur -56.6284 -7.85698 15.5839
rtibia 82.3322
rfoot -30.8001 -5.67371
rtoes -7.80889
lfemur -51.6622 15.3626 -24.8385
ltibia 81.7215
lfoot -35.901 6.5
ltoes -10.8039
